<svg width="20" height="20" viewBox="0 0 20 20" fill="none" xmlns="http://www.w3.org/2000/svg">
<path d="M3.53472 6.45333C3.80266 6.18284 4.23702 6.18098 4.50495 6.45519L10.4855 12.5602C10.7534 12.8335 10.7525 13.275 10.4836 13.5464C10.3501 13.6812 10.1745 13.75 9.99989 13.75C9.8234 13.75 9.64782 13.6812 9.51431 13.5446L3.53381 7.43954C3.26587 7.16627 3.26679 6.72475 3.53472 6.45333ZM15.4941 6.45528C15.762 6.18108 16.1964 6.18294 16.4643 6.45342C16.7332 6.72484 16.7341 7.16636 16.4671 7.43964L12.4956 11.4942C12.3621 11.6308 12.1856 11.6996 12.01 11.6996C11.8354 11.6996 11.6598 11.6308 11.5263 11.496C11.2574 11.2246 11.2565 10.7831 11.5235 10.5098L15.4941 6.45528Z" fill="black"/>
</svg>
