<svg width="25" height="28" viewBox="0 0 25 28" fill="none" xmlns="http://www.w3.org/2000/svg">
<g clip-path="url(#clip0_1_130)">
<path fill-rule="evenodd" clip-rule="evenodd" d="M9.20322 0.485515C9.92446 3.57764 11.4693 6.34391 13.0893 8.84815C13.3305 8.48356 13.5853 8.10986 13.8469 7.72933C15.3008 5.60107 16.9571 3.17432 17.601 0.378419C17.6602 0.116374 17.9195 -0.0454094 18.1812 0.0138354C18.3678 0.0571297 18.5043 0.200684 18.5452 0.37614C19.1937 3.15837 20.8477 5.58512 22.3016 7.71566C23.7464 9.8348 25.0023 11.6782 25.0023 13.4305C25.0023 16.6821 23.198 18.7671 20.891 19.6808C20.0878 19.9998 19.2232 20.173 18.3541 20.2026C17.1619 30.9852 0 30.5864 0 19.0018C0 14.2622 7.3512 8.51318 9.20322 0.485515ZM13.6695 9.72998C16.0562 13.3052 18.4178 16.3289 18.4178 19.0018C18.4178 19.0793 18.4133 19.1522 18.4133 19.2274C19.1413 19.1909 19.8626 19.0428 20.5315 18.7762C22.495 17.9992 24.0285 16.2173 24.0285 13.4305C24.0285 11.9767 22.8522 10.2495 21.4985 8.26253C20.2721 6.4624 18.907 4.45947 18.072 2.17399C17.2393 4.47315 15.8719 6.47607 14.6432 8.27393C14.3042 8.77523 13.9721 9.26058 13.6695 9.72998ZM3.59711 17.6551C3.5516 17.1401 3.92929 16.6867 4.44348 16.6388C4.95768 16.591 5.41045 16.9715 5.45823 17.4865C5.57426 18.7306 5.84501 19.8745 6.36604 20.8634C6.86886 21.8182 7.61285 22.6385 8.6913 23.272C9.13724 23.5317 9.28513 24.106 9.02575 24.5503C8.76411 24.9969 8.19303 25.145 7.74936 24.8853C6.34556 24.0604 5.37177 22.9894 4.71423 21.7362C4.06807 20.5148 3.73589 19.134 3.59711 17.6551Z" fill="white"/>
</g>
<defs>
<clipPath id="clip0_1_130">
<rect width="25" height="28" fill="white"/>
</clipPath>
</defs>
</svg>
