<svg width="30" height="30" viewBox="0 0 30 30" fill="none" xmlns="http://www.w3.org/2000/svg">
<g clip-path="url(#clip0_1_241)">
<path d="M7.49902 0H21.9668C22.3794 0 22.7554 0.168457 23.0264 0.439453C23.2974 0.710449 23.4658 1.08643 23.4658 1.49902V8.74268V26.7432C23.4658 27.1558 23.2974 27.5317 23.0264 27.8027C22.7554 28.0737 22.3794 28.2422 21.9668 28.2422H20.7729V28.9062C20.7729 29.5093 20.2798 30.0024 19.6768 30.0024C19.0737 30.0024 18.5806 29.5093 18.5806 28.9062V28.2422H10.9243V28.9062C10.9243 29.5093 10.4312 30.0024 9.82812 30.0024C9.2251 30.0024 8.73193 29.5093 8.73193 28.9062V28.2422H7.49902C7.08643 28.2422 6.71045 28.0737 6.43945 27.8027C6.16846 27.5317 6 27.1558 6 26.7432V8.74268V1.49902C6 1.08643 6.16846 0.710449 6.43945 0.439453C6.71045 0.168457 7.08643 0 7.49902 0ZM8.49023 10.9595C8.49023 10.6323 8.75635 10.3662 9.0835 10.3662C9.41064 10.3662 9.67676 10.6323 9.67676 10.9595V15.9399C9.67676 16.2671 9.41064 16.5332 9.0835 16.5332C8.75635 16.5332 8.49023 16.2671 8.49023 15.9399V10.9595ZM8.49023 2.53662C8.49023 2.20947 8.75635 1.94336 9.0835 1.94336C9.41064 1.94336 9.67676 2.20947 9.67676 2.53662V6.23535C9.67676 6.5625 9.41064 6.82861 9.0835 6.82861C8.75635 6.82861 8.49023 6.5625 8.49023 6.23535V2.53662ZM7.18896 8.14697H22.2793V1.49902C22.2793 1.41357 22.2451 1.33545 22.1865 1.2793C22.1304 1.22314 22.0522 1.18652 21.9668 1.18652H7.49902C7.41357 1.18652 7.33545 1.2207 7.2793 1.2793C7.22314 1.33545 7.18652 1.41357 7.18652 1.49902V8.14697H7.18896ZM22.2769 9.33594H7.18896V26.7407C7.18896 26.8262 7.22314 26.9043 7.28174 26.9604C7.33789 27.0166 7.41602 27.0532 7.50146 27.0532H21.9668C22.0522 27.0532 22.1304 27.019 22.1865 26.9604C22.2427 26.9043 22.2793 26.8262 22.2793 26.7407V9.33594H22.2769Z" fill="white" fill-opacity="0.81"/>
</g>
<defs>
<clipPath id="clip0_1_241">
<rect width="17.4658" height="30" fill="white" transform="translate(6)"/>
</clipPath>
</defs>
</svg>
