<svg width="30" height="30" viewBox="0 0 30 30" fill="none" xmlns="http://www.w3.org/2000/svg">
<path d="M5.22607 6.55029V27.2729C5.22607 27.2876 5.22607 27.3022 5.22363 27.3145H10.8413V25.1489H19.8086V27.3145H24.8843C24.8843 27.3022 24.8818 27.2925 24.8818 27.2803V6.55029H23.2778V9.09912H18.0508V9.10156V12.0996C18.0508 12.2217 17.9531 12.3193 17.8311 12.3193H16.7959V13.6743H15.8413V12.3193H14.7524V13.6743H13.7979V12.3193H12.7603C12.6382 12.3193 12.5405 12.2217 12.5405 12.0996V9.10156V9.09912H7.36963V6.55029H5.22607ZM10.6973 15.9326H20.0186C20.1943 15.9326 20.3555 16.0059 20.4727 16.1206C20.5898 16.2378 20.6606 16.3989 20.6606 16.5747V16.8652H22.0327C22.3501 16.8652 22.6382 16.9946 22.8457 17.2021C22.853 17.2095 22.8628 17.2192 22.8701 17.229C23.0654 17.4365 23.1851 17.7124 23.1851 18.0151V19.3604C23.1851 19.7217 23.0361 20.0513 22.7993 20.2905C22.5601 20.5298 22.2329 20.6763 21.8691 20.6763H20.3799C19.8794 22.1753 18.7637 23.208 17.4429 23.7451C16.7617 24.0234 16.022 24.165 15.2822 24.1699C14.5425 24.1748 13.8052 24.0381 13.1289 23.7573C11.3955 23.042 10.0527 21.4014 10.0527 18.7671V16.5747C10.0527 16.3989 10.126 16.2378 10.2407 16.1206C10.3579 16.0059 10.519 15.9326 10.6973 15.9326ZM22.0327 17.6318H20.6851V19.917H21.8691C22.0205 19.917 22.1597 19.8535 22.2598 19.7534C22.3599 19.6533 22.4233 19.5142 22.4233 19.3628V18.0176C22.4233 17.9175 22.3867 17.8271 22.3232 17.7588C22.3184 17.7539 22.3135 17.749 22.3086 17.7441C22.2354 17.6758 22.1401 17.6318 22.0327 17.6318ZM19.8989 16.6968H10.8145V18.772C10.8145 21.0474 11.9497 22.4536 13.417 23.0591C14.0005 23.3008 14.6401 23.418 15.2798 23.4131C15.9194 23.4106 16.5615 23.2837 17.1572 23.042C18.6904 22.4194 19.9014 21.0034 19.9014 18.8672V16.6968H19.8989ZM4.4082 27.3169C4.40576 27.3022 4.40576 27.29 4.40576 27.2754V6.55029H1.38086C1.1709 6.55029 1 6.37939 1 6.16943V0.380859C1 0.170898 1.1709 0 1.38086 0H28.8247C29.0347 0 29.2056 0.170898 29.2056 0.380859V6.16943C29.2056 6.37939 29.0347 6.55029 28.8247 6.55029H25.707V27.2827C25.707 27.2949 25.707 27.3047 25.7046 27.3169H28.8247V30H1.38086V27.3169H4.4082ZM12.2915 1.5625H18.4048C18.5122 1.5625 18.6001 1.65771 18.6001 1.77734V4.71191C18.6001 4.83154 18.5122 4.92676 18.4048 4.92676H12.2915C12.1841 4.92676 12.0962 4.83154 12.0962 4.71191V1.77734C12.0962 1.65771 12.1841 1.5625 12.2915 1.5625ZM17.6113 9.32129H12.98V11.8799H17.6138V9.32129H17.6113ZM28.3853 0.820312H1.82031V5.72754H28.3853V0.820312Z" fill="white" fill-opacity="0.81"/>
</svg>
