<svg width="30" height="30" viewBox="0 0 30 30" fill="none" xmlns="http://www.w3.org/2000/svg">
<g clip-path="url(#clip0_1_200)">
<path d="M14.3457 10.8984L12.6611 9.21387L12.5195 11.3647L14.3457 13.1909V10.8984ZM7.854 8.56934L4.729 8.68652C4.36523 8.69873 4.06006 8.41553 4.04785 8.05176C4.03564 7.68799 4.31885 7.38281 4.68262 7.37061L6.58203 7.2998L4.43115 5.14893C4.17236 4.89014 4.17236 4.47266 4.43115 4.21387C4.68994 3.95508 5.10742 3.95508 5.36621 4.21387L7.48291 6.33057L7.51221 4.55078C7.51709 4.18701 7.81738 3.89648 8.18115 3.90137C8.54492 3.90625 8.83545 4.20654 8.83057 4.57031L8.78174 7.62695L11.5234 10.3687L11.6797 7.98096C11.6968 7.69043 11.9482 7.46826 12.2388 7.48779C12.373 7.49512 12.4902 7.55371 12.5781 7.6416L14.3408 9.4043V5.08301L12.1436 2.9541C11.8823 2.7002 11.8774 2.28271 12.1313 2.02148C12.3853 1.76025 12.8027 1.75537 13.064 2.00928L14.3408 3.24707V0.661621C14.3408 0.29541 14.6362 0 15.0024 0C15.3687 0 15.6641 0.29541 15.6641 0.661621V3.29102L17.0581 1.99951C17.3242 1.75049 17.7417 1.76514 17.9907 2.03369C18.2397 2.2998 18.2251 2.71729 17.9565 2.96631L15.6641 5.09277V9.21631L17.4976 7.60986C17.7173 7.41699 18.0493 7.44141 18.2422 7.65869C18.3301 7.75879 18.3716 7.8833 18.3716 8.00537H18.374V10.6714L21.5649 7.48047L21.5161 4.42383C21.5112 4.06006 21.8018 3.75977 22.1655 3.75488C22.5293 3.75 22.8296 4.04053 22.8345 4.4043L22.8638 6.18408L24.6924 4.35547C24.9512 4.09668 25.3687 4.09668 25.6274 4.35547C25.8862 4.61426 25.8862 5.03174 25.6274 5.29053L23.7671 7.15088L25.6665 7.22168C26.0303 7.23389 26.3159 7.53906 26.3013 7.90283C26.2891 8.2666 25.9839 8.55225 25.6201 8.5376L22.4951 8.42041L19.6069 11.3135L21.8726 11.4624C22.1631 11.4795 22.3853 11.731 22.3657 12.0215C22.3584 12.1558 22.2998 12.2729 22.2119 12.3608L20.4346 14.1382H24.9121L27.041 11.9409C27.2949 11.6797 27.7124 11.6748 27.9736 11.9287C28.2349 12.1826 28.2397 12.6001 27.9858 12.8613L26.748 14.1382H29.3311C29.6973 14.1382 29.9927 14.4336 29.9927 14.7998C29.9927 15.166 29.6973 15.4614 29.3311 15.4614H26.709L28.0005 16.8555C28.2495 17.1216 28.2349 17.5391 27.9663 17.7881C27.7002 18.0371 27.2827 18.0225 27.0337 17.7539L24.9072 15.4614H20.6519L22.2461 17.2803C22.439 17.5 22.4146 17.832 22.1973 18.0249C22.0972 18.1128 21.9727 18.1543 21.8506 18.1543V18.1567H19.314L22.5171 21.3623L25.5737 21.3135C25.9375 21.3086 26.2378 21.5991 26.2427 21.9629C26.2476 22.3267 25.957 22.627 25.5933 22.6318L23.8135 22.6611L25.6421 24.4897C25.9009 24.7485 25.9009 25.166 25.6421 25.4248C25.3833 25.6836 24.9658 25.6836 24.707 25.4248L22.8467 23.5645L22.7759 25.4639C22.7637 25.8276 22.4585 26.1133 22.0947 26.0986C21.731 26.0864 21.4453 25.7812 21.46 25.4175L21.5771 22.2925L18.5498 19.2651L18.3936 21.6528C18.3765 21.9434 18.125 22.1655 17.8345 22.146C17.7002 22.1387 17.583 22.0801 17.4951 21.9922L15.6714 20.1685V24.4946L17.9639 26.6211C18.23 26.8701 18.2446 27.2876 17.998 27.5537C17.749 27.8198 17.3315 27.8345 17.0654 27.5879L15.6714 26.2964V29.3359C15.6714 29.7021 15.376 29.9976 15.0098 29.9976C14.6436 29.9976 14.3481 29.7021 14.3481 29.3359V26.3428L13.0713 27.5806C12.8101 27.8345 12.3926 27.8296 12.1387 27.5684C11.8848 27.3071 11.8896 26.8896 12.1509 26.6357L14.3481 24.5068V20.4736L12.5757 22.0264C12.356 22.2192 12.0239 22.1948 11.8311 21.9775C11.7432 21.8774 11.7017 21.7529 11.7017 21.6309H11.6992V19.2261L8.77441 22.146L8.8916 25.271C8.90381 25.6348 8.62061 25.9399 8.25684 25.9521C7.89307 25.9644 7.58789 25.6812 7.57568 25.3174L7.50488 23.418L5.354 25.5688C5.09521 25.8276 4.67773 25.8276 4.41895 25.5688C4.16016 25.3101 4.16016 24.8926 4.41895 24.6338L6.53564 22.5171L4.75586 22.4878C4.39209 22.4829 4.10156 22.1826 4.10645 21.8188C4.11133 21.4551 4.41162 21.1646 4.77539 21.1694L7.83203 21.2183L10.7129 18.3374L8.20312 18.1714C7.9126 18.1543 7.69043 17.9028 7.70996 17.6123C7.71729 17.478 7.77588 17.3608 7.86377 17.2729L9.67041 15.4639H5.50293L3.37646 17.7563C3.12744 18.0225 2.70996 18.0371 2.44385 17.7905C2.17773 17.5415 2.16309 17.124 2.40967 16.8579L3.70117 15.4639H0.661621C0.29541 15.4639 0 15.1685 0 14.8022C0 14.436 0.29541 14.1406 0.661621 14.1406H3.65479L2.41699 12.8638C2.16309 12.6025 2.16797 12.1851 2.4292 11.9312C2.69043 11.6772 3.10791 11.6821 3.36182 11.9434L5.49072 14.1406H9.39453L7.82959 12.3535C7.63672 12.1338 7.66113 11.8018 7.87842 11.6089C7.97852 11.521 8.10303 11.4795 8.2251 11.4795V11.4771H10.7593L7.854 8.56934ZM11.8188 12.5366H9.38965L10.7959 14.1406H13.4229L11.8188 12.5366ZM17.5562 18.2715L15.6689 16.3843V18.6768L17.4146 20.4224L17.5562 18.2715ZM16.6187 15.4639L18.2544 17.0996H20.6836L19.2505 15.4639H16.6187ZM11.1646 15.4639L9.43359 17.1948L11.7065 17.3438L13.5889 15.4614H11.1646V15.4639ZM16.7798 14.1406H18.9404L20.6421 12.439L18.6133 12.3047L16.7798 14.1406ZM12.7563 18.1641V20.4614L14.3457 19.0674V16.5747L12.7563 18.1641ZM15.6689 13.3813L17.3193 11.731V9.17236L15.6689 10.6201V13.3813Z" fill="white" fill-opacity="0.81"/>
</g>
<defs>
<clipPath id="clip0_1_200">
<rect width="30" height="30" fill="white"/>
</clipPath>
</defs>
</svg>
